<mxfile host="app.diagrams.net" modified="2021-10-08T02:04:50.344Z" agent="5.0 (Macintosh; Intel Mac OS X 10_15_7) AppleWebKit/537.36 (KHTML, like Gecko) Chrome/94.0.4606.61 Safari/537.36" etag="h7YE1Y7trtqixfz2Kc0q" version="15.4.3" type="github">
  <diagram name="Page-1" id="13e1069c-82ec-6db2-03f1-153e76fe0fe0">
    <mxGraphModel dx="1004" dy="679" grid="1" gridSize="10" guides="1" tooltips="1" connect="1" arrows="1" fold="1" page="1" pageScale="1" pageWidth="1100" pageHeight="850" background="none" math="0" shadow="0">
      <root>
        <mxCell id="0" />
        <mxCell id="1" parent="0" />
        <mxCell id="6D6QotMUfGsq8lvuMjx6-1" value="根云4.0" style="rounded=0;whiteSpace=wrap;html=1;" vertex="1" parent="1">
          <mxGeometry x="250" y="120" width="440" height="60" as="geometry" />
        </mxCell>
        <mxCell id="6D6QotMUfGsq8lvuMjx6-2" value="转换层" style="rounded=0;whiteSpace=wrap;html=1;" vertex="1" parent="1">
          <mxGeometry x="400" y="240" width="120" height="60" as="geometry" />
        </mxCell>
        <mxCell id="6D6QotMUfGsq8lvuMjx6-3" value="base-custom-jieke" style="rounded=0;whiteSpace=wrap;html=1;" vertex="1" parent="1">
          <mxGeometry x="250" y="359" width="440" height="60" as="geometry" />
        </mxCell>
        <mxCell id="6D6QotMUfGsq8lvuMjx6-4" value="4.0指令（http）" style="html=1;verticalAlign=bottom;endArrow=block;rounded=0;edgeStyle=orthogonalEdgeStyle;entryX=0.25;entryY=0;entryDx=0;entryDy=0;" edge="1" parent="1" target="6D6QotMUfGsq8lvuMjx6-2">
          <mxGeometry x="0.3333" y="-30" width="80" relative="1" as="geometry">
            <mxPoint x="430" y="180" as="sourcePoint" />
            <mxPoint x="500" y="200" as="targetPoint" />
            <Array as="points">
              <mxPoint x="430" y="180" />
            </Array>
            <mxPoint as="offset" />
          </mxGeometry>
        </mxCell>
        <mxCell id="6D6QotMUfGsq8lvuMjx6-7" value="3.0指令" style="html=1;verticalAlign=bottom;endArrow=block;rounded=0;edgeStyle=orthogonalEdgeStyle;entryX=0.25;entryY=0;entryDx=0;entryDy=0;" edge="1" parent="1">
          <mxGeometry x="0.2607" width="80" relative="1" as="geometry">
            <mxPoint x="430" y="299" as="sourcePoint" />
            <mxPoint x="430" y="359" as="targetPoint" />
            <Array as="points">
              <mxPoint x="430" y="299" />
            </Array>
            <mxPoint as="offset" />
          </mxGeometry>
        </mxCell>
        <mxCell id="6D6QotMUfGsq8lvuMjx6-8" value="3.0上行" style="html=1;verticalAlign=bottom;endArrow=block;rounded=0;edgeStyle=orthogonalEdgeStyle;entryX=0.75;entryY=1;entryDx=0;entryDy=0;exitX=0.548;exitY=-0.017;exitDx=0;exitDy=0;exitPerimeter=0;" edge="1" parent="1" source="6D6QotMUfGsq8lvuMjx6-3" target="6D6QotMUfGsq8lvuMjx6-2">
          <mxGeometry x="-0.3913" y="1" width="80" relative="1" as="geometry">
            <mxPoint x="440" y="309" as="sourcePoint" />
            <mxPoint x="440" y="369" as="targetPoint" />
            <Array as="points">
              <mxPoint x="490" y="358" />
            </Array>
            <mxPoint as="offset" />
          </mxGeometry>
        </mxCell>
        <mxCell id="6D6QotMUfGsq8lvuMjx6-9" value="4.0上行（kafka）" style="html=1;verticalAlign=bottom;endArrow=block;rounded=0;edgeStyle=orthogonalEdgeStyle;entryX=0.75;entryY=1;entryDx=0;entryDy=0;exitX=0.548;exitY=-0.017;exitDx=0;exitDy=0;exitPerimeter=0;" edge="1" parent="1">
          <mxGeometry x="-0.3532" y="-41" width="80" relative="1" as="geometry">
            <mxPoint x="490.1199999999999" y="237.98000000000002" as="sourcePoint" />
            <mxPoint x="489" y="180" as="targetPoint" />
            <Array as="points">
              <mxPoint x="489" y="238" />
            </Array>
            <mxPoint as="offset" />
          </mxGeometry>
        </mxCell>
      </root>
    </mxGraphModel>
  </diagram>
</mxfile>
